# This file uses centimeters as units for non-parametric coordinates.

mtllib 2.mtl
g default
v -0.074404 0.074763 0.152866
v 0.127055 0.075677 0.147228
v -0.035781 0.266449 0.178221
v 0.099969 0.265352 0.172519
v -0.047242 0.313024 -0.069376
v 0.091985 0.316886 -0.075409
v -0.084524 0.109326 -0.112183
v 0.119979 0.110260 -0.117918
v -0.066328 0.331574 0.058581
v 0.128662 0.214707 -0.122816
v 0.019030 0.094925 -0.145483
v -0.092361 0.212942 -0.115592
v 0.147456 0.056834 0.011848
v -0.102875 0.055670 0.019025
v 0.029366 0.047046 0.175664
v 0.136990 0.172110 0.190233
v 0.036571 0.272836 0.211610
v -0.076963 0.170955 0.197355
v 0.118102 0.332696 0.051290
v 0.015547 0.327046 -0.093881
v 0.034004 0.157165 0.238808
v 0.019783 0.411622 0.064779
v 0.020655 0.214666 -0.165160
v 0.024872 0.000735 0.003456
v 0.174981 0.193066 0.031382
v -0.134066 0.189616 0.041168
v -0.075522 0.276870 -0.096198
v 0.116574 0.278387 -0.102926
v 0.079940 0.217516 -0.155860
v 0.126113 0.154134 -0.129770
v 0.082816 0.102349 -0.137416
v 0.019679 0.152557 -0.171935
v -0.048274 0.101798 -0.134014
v -0.089743 0.152834 -0.123027
v 0.021676 0.037299 -0.081565
v -0.051518 0.011697 0.007165
v -0.098410 0.079989 -0.062280
v 0.137610 0.081079 -0.069003
v 0.095905 0.012333 0.003246
v 0.141660 0.059871 0.093066
v 0.027478 0.011571 0.099139
v -0.091986 0.058794 0.099714
v 0.169973 0.118188 0.020493
v 0.166574 0.181563 0.118341
v 0.162059 0.204906 -0.054107
v 0.163903 0.269338 0.042023
v -0.122914 0.116090 0.029630
v -0.126700 0.201558 -0.044944
v -0.112747 0.179724 0.127445
v -0.118479 0.265994 0.051154
v -0.037390 0.056547 0.170189
v 0.032781 0.100239 0.218208
v -0.026055 0.162919 0.229472
v -0.076803 0.114266 0.180633
v 0.091656 0.057088 0.166852
v 0.133870 0.115340 0.174006
v 0.091243 0.162965 0.225596
v 0.123120 0.228077 0.188174
v 0.079687 0.275252 0.200428
v 0.035342 0.214491 0.238961
v -0.005665 0.275091 0.203926
v -0.060561 0.227609 0.194808
v 0.022013 0.366254 0.120202
v -0.020187 0.382556 0.063416
v -0.054588 0.304286 0.131754
v 0.112455 0.304155 0.124754
v 0.067688 0.379782 0.060017
v 0.109141 0.336896 -0.023868
v 0.068707 0.329722 -0.091136
v 0.017195 0.394189 -0.000621
v -0.018461 0.321818 -0.087171
v -0.062051 0.335306 -0.017598
v 0.020088 0.272551 -0.140389
v -0.040324 0.216925 -0.151912
v -0.026438 0.106237 0.210119
v 0.089186 0.106821 0.206515
v 0.086862 0.219674 0.225757
v -0.018625 0.220011 0.229368
v -0.016283 0.350774 0.115651
v 0.070443 0.347292 0.121078
v 0.066619 0.379140 0.002568
v -0.021012 0.381142 0.007291
v -0.033015 0.275171 -0.132549
v 0.074720 0.276283 -0.132743
v 0.078493 0.155854 -0.162445
v -0.040426 0.155257 -0.158762
v -0.050200 0.046898 -0.073445
v 0.089132 0.047492 -0.077108
v 0.094014 0.023201 0.094333
v -0.043981 0.022614 0.097954
v 0.161736 0.115152 0.104869
v 0.157654 0.136381 -0.062660
v 0.151077 0.276405 -0.038204
v 0.154432 0.248692 0.122079
v -0.117744 0.134224 -0.054102
v -0.107881 0.113694 0.113353
v -0.097251 0.246858 0.130567
v -0.111283 0.273157 -0.029661
vt 0.806010 0.808660
vt 0.822290 0.798180
vt 0.838840 0.825680
vt 0.813390 0.828930
vt 0.846220 0.781080
vt 0.863550 0.818830
vt 0.868030 0.859360
vt 0.840000 0.857160
vt 0.814620 0.855200
vt 0.664490 0.490410
vt 0.682990 0.510120
vt 0.664540 0.536060
vt 0.641430 0.524390
vt 0.697580 0.523190
vt 0.687900 0.542700
vt 0.683190 0.568670
vt 0.658530 0.566670
vt 0.631130 0.564150
vt 0.660220 0.599490
vt 0.637270 0.606740
vt 0.682880 0.595560
vt 0.687580 0.619760
vt 0.673920 0.631670
vt 0.658110 0.644530
vt 0.834370 0.889850
vt 0.811780 0.882340
vt 0.856480 0.900700
vt 0.832360 0.935610
vt 0.818170 0.922310
vt 0.804690 0.906690
vt 0.778230 0.942300
vt 0.776780 0.914620
vt 0.783420 0.962670
vt 0.733190 0.969690
vt 0.735130 0.947820
vt 0.738420 0.917510
vt 0.707610 0.656970
vt 0.697450 0.684170
vt 0.712930 0.631700
vt 0.749510 0.640720
vt 0.748100 0.667760
vt 0.745440 0.697050
vt 0.788390 0.664840
vt 0.793810 0.693150
vt 0.785870 0.640040
vt 0.811860 0.634370
vt 0.822240 0.648020
vt 0.834800 0.671910
vt 0.693840 0.938560
vt 0.701510 0.911750
vt 0.686340 0.957350
vt 0.649680 0.930360
vt 0.661290 0.915440
vt 0.676060 0.902080
vt 0.648900 0.875670
vt 0.673850 0.873100
vt 0.625740 0.883230
vt 0.619950 0.835650
vt 0.648700 0.838890
vt 0.676300 0.841460
vt 0.840850 0.614760
vt 0.863310 0.626560
vt 0.818740 0.608050
vt 0.822280 0.577000
vt 0.848140 0.578630
vt 0.875940 0.580250
vt 0.847420 0.546530
vt 0.871520 0.538530
vt 0.823210 0.549860
vt 0.817110 0.530290
vt 0.832980 0.520910
vt 0.855540 0.503820
vt 0.655030 0.807150
vt 0.679490 0.814720
vt 0.631580 0.795490
vt 0.653960 0.763930
vt 0.674470 0.785330
vt 0.688670 0.796950
vt 0.708930 0.765120
vt 0.713550 0.791210
vt 0.697520 0.735040
vt 0.753580 0.725080
vt 0.750420 0.761050
vt 0.749590 0.789600
vt 0.801720 0.495520
vt 0.816990 0.469290
vt 0.793080 0.520700
vt 0.757320 0.513370
vt 0.760980 0.484880
vt 0.763580 0.451300
vt 0.717160 0.490050
vt 0.706310 0.462160
vt 0.722310 0.516470
vt 0.792470 0.772840
vt 0.783200 0.798120
vt 0.809050 0.745550
vt 0.719500 0.542270
vt 0.755190 0.541500
vt 0.752980 0.574010
vt 0.715880 0.571440
vt 0.791070 0.546110
vt 0.789900 0.575860
vt 0.786480 0.607560
vt 0.751100 0.607290
vt 0.715680 0.601110
vt 0.711820 0.816030
vt 0.747690 0.817110
vt 0.744980 0.849140
vt 0.708870 0.845130
vt 0.782700 0.823590
vt 0.781850 0.853060
vt 0.778180 0.883020
vt 0.741630 0.882300
vt 0.706800 0.876970
vn -0.521747 -0.483455 0.702887
vn -0.521747 -0.483455 0.702887
vn -0.521747 -0.483455 0.702887
vn -0.521747 -0.483455 0.702887
vn -0.158413 -0.604010 0.781075
vn -0.158413 -0.604010 0.781074
vn -0.158413 -0.604010 0.781074
vn -0.158413 -0.604010 0.781074
vn -0.167978 -0.324929 0.930701
vn -0.167978 -0.324929 0.930701
vn -0.167978 -0.324929 0.930701
vn -0.167978 -0.324929 0.930701
vn -0.531695 -0.255859 0.807364
vn -0.531695 -0.255859 0.807364
vn -0.531695 -0.255859 0.807364
vn -0.531695 -0.255859 0.807364
vn 0.217088 -0.610409 0.761757
vn 0.217088 -0.610409 0.761757
vn 0.217088 -0.610409 0.761757
vn 0.217088 -0.610409 0.761757
vn 0.584753 -0.502014 0.637217
vn 0.584753 -0.502014 0.637217
vn 0.584753 -0.502014 0.637217
vn 0.584753 -0.502014 0.637217
vn 0.611541 -0.261541 0.746736
vn 0.611541 -0.261541 0.746736
vn 0.611541 -0.261541 0.746736
vn 0.611541 -0.261541 0.746736
vn 0.236183 -0.327867 0.914725
vn 0.236183 -0.327867 0.914725
vn 0.236183 -0.327867 0.914725
vn 0.236183 -0.327867 0.914725
vn 0.235679 0.003613 0.971824
vn 0.235679 0.003613 0.971824
vn 0.235679 0.003613 0.971824
vn 0.235679 0.003613 0.971824
vn 0.645908 0.117329 0.754345
vn 0.645908 0.117329 0.754345
vn 0.645908 0.117329 0.754346
vn 0.645908 0.117329 0.754345
vn 0.672865 0.471401 0.570118
vn 0.672865 0.471401 0.570117
vn 0.672865 0.471401 0.570118
vn 0.672865 0.471401 0.570117
vn 0.194676 0.420038 0.886380
vn 0.194676 0.420038 0.886380
vn 0.194676 0.420038 0.886380
vn 0.194676 0.420038 0.886380
vn -0.562524 0.136863 0.815374
vn -0.562524 0.136863 0.815374
vn -0.562524 0.136863 0.815374
vn -0.562524 0.136863 0.815374
vn -0.162595 0.012037 0.986620
vn -0.162595 0.012037 0.986620
vn -0.162595 0.012037 0.986619
vn -0.162595 0.012037 0.986620
vn -0.125558 0.431503 0.893331
vn -0.125558 0.431503 0.893331
vn -0.125558 0.431503 0.893331
vn -0.125558 0.431503 0.893331
vn -0.554239 0.515246 0.653713
vn -0.554239 0.515246 0.653713
vn -0.554239 0.515246 0.653713
vn -0.554239 0.515246 0.653713
vn -0.549187 0.576155 0.605342
vn -0.549187 0.576155 0.605342
vn -0.549187 0.576155 0.605342
vn -0.549187 0.576155 0.605342
vn -0.218221 0.695230 0.684862
vn -0.218221 0.695230 0.684862
vn -0.218221 0.695230 0.684862
vn -0.218221 0.695230 0.684862
vn -0.447396 0.714683 0.537648
vn -0.447396 0.714683 0.537648
vn -0.447396 0.714683 0.537648
vn -0.447396 0.714683 0.537648
vn -0.676466 0.630144 0.381198
vn -0.676466 0.630144 0.381198
vn -0.676466 0.630144 0.381198
vn -0.676466 0.630144 0.381198
vn 0.204612 0.717070 0.666292
vn 0.204612 0.717070 0.666292
vn 0.204612 0.717070 0.666292
vn 0.204612 0.717070 0.666292
vn 0.665934 0.553772 0.499868
vn 0.665934 0.553772 0.499868
vn 0.665934 0.553772 0.499868
vn 0.665934 0.553772 0.499868
vn 0.671063 0.669633 0.318224
vn 0.671063 0.669633 0.318224
vn 0.671063 0.669633 0.318224
vn 0.671063 0.669633 0.318224
vn 0.421700 0.762080 0.491328
vn 0.421700 0.762080 0.491328
vn 0.421700 0.762080 0.491328
vn 0.421700 0.762080 0.491328
vn 0.427601 0.892419 -0.144032
vn 0.427601 0.892419 -0.144032
vn 0.427601 0.892419 -0.144032
vn 0.427601 0.892419 -0.144032
vn 0.686217 0.726674 -0.032406
vn 0.686217 0.726674 -0.032406
vn 0.686217 0.726674 -0.032406
vn 0.686217 0.726674 -0.032406
vn 0.546599 0.732042 -0.406625
vn 0.546599 0.732042 -0.406625
vn 0.546599 0.732042 -0.406625
vn 0.546599 0.732042 -0.406625
vn 0.131799 0.841329 -0.524209
vn 0.131799 0.841329 -0.524209
vn 0.131799 0.841329 -0.524209
vn 0.131799 0.841329 -0.524209
vn -0.741942 0.670421 -0.007613
vn -0.741942 0.670421 -0.007613
vn -0.741942 0.670421 -0.007613
vn -0.741942 0.670421 -0.007613
vn -0.478610 0.869592 -0.121420
vn -0.478610 0.869592 -0.121420
vn -0.478610 0.869592 -0.121420
vn -0.478610 0.869592 -0.121420
vn -0.307401 0.788508 -0.532691
vn -0.307401 0.788508 -0.532691
vn -0.307401 0.788508 -0.532691
vn -0.307401 0.788508 -0.532691
vn -0.516461 0.720213 -0.463207
vn -0.516461 0.720213 -0.463207
vn -0.516461 0.720213 -0.463207
vn -0.516461 0.720213 -0.463207
vn -0.471939 0.705346 -0.528924
vn -0.471939 0.705346 -0.528924
vn -0.471939 0.705346 -0.528924
vn -0.471939 0.705346 -0.528924
vn -0.141374 0.673305 -0.725723
vn -0.141374 0.673305 -0.725723
vn -0.141374 0.673305 -0.725723
vn -0.141374 0.673305 -0.725723
vn -0.154805 0.358805 -0.920486
vn -0.154805 0.358805 -0.920486
vn -0.154805 0.358805 -0.920486
vn -0.154806 0.358805 -0.920486
vn -0.576512 0.348407 -0.739085
vn -0.576512 0.348407 -0.739085
vn -0.576512 0.348407 -0.739085
vn -0.576512 0.348407 -0.739085
vn 0.036757 0.634127 -0.772354
vn 0.036757 0.634127 -0.772355
vn 0.036757 0.634127 -0.772355
vn 0.036757 0.634127 -0.772354
vn 0.516451 0.617757 -0.593005
vn 0.516451 0.617757 -0.593005
vn 0.516451 0.617757 -0.593005
vn 0.516451 0.617757 -0.593005
vn 0.536730 0.346134 -0.769488
vn 0.536730 0.346134 -0.769488
vn 0.536730 0.346134 -0.769488
vn 0.536730 0.346134 -0.769488
vn 0.114334 0.382124 -0.917011
vn 0.114334 0.382124 -0.917011
vn 0.114334 0.382124 -0.917011
vn 0.114334 0.382124 -0.917011
vn 0.151050 0.103163 -0.983128
vn 0.151050 0.103163 -0.983128
vn 0.151050 0.103163 -0.983128
vn 0.151050 0.103163 -0.983128
vn 0.564359 0.072633 -0.822328
vn 0.564359 0.072633 -0.822328
vn 0.564359 0.072633 -0.822328
vn 0.564359 0.072633 -0.822328
vn 0.514337 -0.312094 -0.798783
vn 0.514337 -0.312094 -0.798783
vn 0.514337 -0.312094 -0.798783
vn 0.514337 -0.312094 -0.798783
vn 0.164334 -0.410124 -0.897102
vn 0.164334 -0.410124 -0.897102
vn 0.164334 -0.410124 -0.897102
vn 0.164334 -0.410124 -0.897102
vn -0.580903 0.082984 -0.809732
vn -0.580903 0.082984 -0.809732
vn -0.580903 0.082984 -0.809732
vn -0.580903 0.082984 -0.809732
vn -0.207666 0.108818 -0.972129
vn -0.207666 0.108818 -0.972129
vn -0.207666 0.108818 -0.972129
vn -0.207666 0.108818 -0.972128
vn -0.202948 -0.397011 -0.895094
vn -0.202948 -0.397011 -0.895094
vn -0.202948 -0.397011 -0.895094
vn -0.202948 -0.397011 -0.895094
vn -0.547901 -0.275120 -0.790009
vn -0.547901 -0.275120 -0.790009
vn -0.547901 -0.275120 -0.790009
vn -0.547901 -0.275120 -0.790009
vn -0.526397 -0.638098 -0.561906
vn -0.526397 -0.638098 -0.561906
vn -0.526397 -0.638098 -0.561906
vn -0.526397 -0.638098 -0.561906
vn -0.179209 -0.730353 -0.659142
vn -0.179209 -0.730353 -0.659142
vn -0.179209 -0.730353 -0.659142
vn -0.179209 -0.730353 -0.659142
vn -0.156964 -0.906847 -0.391141
vn -0.156964 -0.906847 -0.391141
vn -0.156964 -0.906847 -0.391141
vn -0.156964 -0.906847 -0.391141
vn -0.626882 -0.723754 -0.288442
vn -0.626882 -0.723754 -0.288442
vn -0.626882 -0.723754 -0.288442
vn -0.626882 -0.723754 -0.288442
vn 0.161241 -0.725759 -0.668786
vn 0.161241 -0.725759 -0.668786
vn 0.161241 -0.725759 -0.668786
vn 0.161241 -0.725759 -0.668786
vn 0.497623 -0.631301 -0.594837
vn 0.497623 -0.631301 -0.594837
vn 0.497623 -0.631301 -0.594837
vn 0.497623 -0.631301 -0.594837
vn 0.614771 -0.717388 -0.327736
vn 0.614771 -0.717388 -0.327736
vn 0.614771 -0.717388 -0.327736
vn 0.614771 -0.717388 -0.327736
vn 0.154382 -0.903003 -0.400938
vn 0.154382 -0.903003 -0.400938
vn 0.154382 -0.903003 -0.400938
vn 0.154382 -0.903003 -0.400938
vn 0.169430 -0.979029 0.113122
vn 0.169430 -0.979029 0.113122
vn 0.169430 -0.979029 0.113122
vn 0.169430 -0.979029 0.113122
vn 0.626676 -0.774016 0.090421
vn 0.626676 -0.774016 0.090421
vn 0.626676 -0.774016 0.090421
vn 0.626676 -0.774016 0.090421
vn 0.577711 -0.730608 0.363952
vn 0.577711 -0.730608 0.363952
vn 0.577711 -0.730608 0.363952
vn 0.577711 -0.730608 0.363952
vn 0.193412 -0.889277 0.414461
vn 0.193412 -0.889277 0.414461
vn 0.193412 -0.889277 0.414461
vn 0.193412 -0.889277 0.414461
vn -0.611736 -0.780369 0.129632
vn -0.611736 -0.780369 0.129632
vn -0.611736 -0.780369 0.129632
vn -0.611736 -0.780369 0.129632
vn -0.144062 -0.981971 0.122389
vn -0.144062 -0.981971 0.122389
vn -0.144062 -0.981971 0.122389
vn -0.144062 -0.981971 0.122389
vn -0.153087 -0.892161 0.424987
vn -0.153087 -0.892161 0.424987
vn -0.153087 -0.892161 0.424987
vn -0.153087 -0.892161 0.424987
vn -0.544932 -0.737659 0.398632
vn -0.544932 -0.737659 0.398632
vn -0.544932 -0.737659 0.398632
vn -0.544932 -0.737659 0.398632
vn 0.857015 -0.382872 0.344869
vn 0.857015 -0.382872 0.344869
vn 0.857015 -0.382872 0.344869
vn 0.857015 -0.382872 0.344869
vn 0.931852 -0.354140 0.078970
vn 0.931852 -0.354140 0.078970
vn 0.931852 -0.354140 0.078970
vn 0.931852 -0.354140 0.078970
vn 0.992416 -0.084544 0.089232
vn 0.992416 -0.084544 0.089232
vn 0.992416 -0.084544 0.089232
vn 0.992416 -0.084544 0.089232
vn 0.919342 -0.147353 0.364826
vn 0.919342 -0.147353 0.364826
vn 0.919342 -0.147353 0.364826
vn 0.919342 -0.147353 0.364826
vn 0.927496 -0.311914 -0.206062
vn 0.927496 -0.311914 -0.206062
vn 0.927496 -0.311914 -0.206062
vn 0.927496 -0.311914 -0.206062
vn 0.850917 -0.250259 -0.461857
vn 0.850917 -0.250259 -0.461857
vn 0.850917 -0.250259 -0.461857
vn 0.850917 -0.250259 -0.461857
vn 0.902426 0.003141 -0.430833
vn 0.902426 0.003141 -0.430833
vn 0.902426 0.003141 -0.430833
vn 0.902426 0.003141 -0.430833
vn 0.986871 -0.043698 -0.155489
vn 0.986871 -0.043698 -0.155489
vn 0.986871 -0.043698 -0.155489
vn 0.986871 -0.043698 -0.155489
vn 0.976585 0.169571 -0.132389
vn 0.976585 0.169571 -0.132389
vn 0.976585 0.169571 -0.132389
vn 0.976585 0.169571 -0.132389
vn 0.869767 0.259561 -0.419683
vn 0.869767 0.259561 -0.419683
vn 0.869767 0.259561 -0.419683
vn 0.869767 0.259561 -0.419683
vn 0.675518 0.621633 -0.396544
vn 0.675518 0.621633 -0.396544
vn 0.675519 0.621633 -0.396544
vn 0.675518 0.621633 -0.396544
vn 0.807535 0.585559 -0.070767
vn 0.807535 0.585560 -0.070767
vn 0.807535 0.585559 -0.070767
vn 0.807535 0.585559 -0.070767
vn 0.884570 0.181060 0.429830
vn 0.884570 0.181060 0.429830
vn 0.884570 0.181060 0.429830
vn 0.884570 0.181060 0.429830
vn 0.980398 0.145420 0.132938
vn 0.980398 0.145420 0.132938
vn 0.980398 0.145420 0.132938
vn 0.980398 0.145420 0.132938
vn 0.789578 0.557526 0.256382
vn 0.789578 0.557526 0.256382
vn 0.789578 0.557526 0.256382
vn 0.789578 0.557526 0.256382
vn 0.656248 0.535300 0.531783
vn 0.656248 0.535300 0.531783
vn 0.656248 0.535300 0.531783
vn 0.656248 0.535300 0.531783
vn -0.883833 -0.233081 -0.405600
vn -0.883833 -0.233081 -0.405600
vn -0.883833 -0.233081 -0.405600
vn -0.883833 -0.233081 -0.405600
vn -0.943884 -0.302365 -0.132883
vn -0.943884 -0.302365 -0.132883
vn -0.943884 -0.302365 -0.132883
vn -0.943884 -0.302365 -0.132883
vn -0.987318 -0.126932 -0.095350
vn -0.987318 -0.126932 -0.095350
vn -0.987318 -0.126932 -0.095350
vn -0.987318 -0.126932 -0.095350
vn -0.910352 -0.028926 -0.412823
vn -0.910352 -0.028926 -0.412823
vn -0.910352 -0.028926 -0.412823
vn -0.910352 -0.028926 -0.412823
vn -0.934777 -0.322564 0.148810
vn -0.934777 -0.322564 0.148810
vn -0.934777 -0.322564 0.148810
vn -0.934777 -0.322564 0.148810
vn -0.855649 -0.337800 0.392118
vn -0.855649 -0.337800 0.392118
vn -0.855649 -0.337800 0.392118
vn -0.855649 -0.337800 0.392118
vn -0.892949 -0.143690 0.426610
vn -0.892949 -0.143690 0.426610
vn -0.892949 -0.143690 0.426610
vn -0.892949 -0.143690 0.426610
vn -0.969340 -0.147370 0.196627
vn -0.969340 -0.147370 0.196627
vn -0.969340 -0.147370 0.196627
vn -0.969340 -0.147370 0.196627
vn -0.944790 0.179597 0.274074
vn -0.944790 0.179597 0.274074
vn -0.944790 0.179597 0.274074
vn -0.944790 0.179597 0.274074
vn -0.840007 0.214139 0.498531
vn -0.840007 0.214139 0.498531
vn -0.840007 0.214139 0.498531
vn -0.840007 0.214139 0.498531
vn -0.619234 0.526944 0.582133
vn -0.619234 0.526944 0.582133
vn -0.619234 0.526945 0.582133
vn -0.619234 0.526944 0.582133
vn -0.757643 0.560581 0.334254
vn -0.757643 0.560581 0.334254
vn -0.757643 0.560581 0.334254
vn -0.757643 0.560581 0.334254
vn -0.860357 0.308568 -0.405675
vn -0.860357 0.308568 -0.405675
vn -0.860357 0.308568 -0.405675
vn -0.860357 0.308568 -0.405675
vn -0.974833 0.214574 -0.060482
vn -0.974833 0.214574 -0.060482
vn -0.974833 0.214574 -0.060482
vn -0.974833 0.214574 -0.060482
vn -0.782145 0.622941 -0.013928
vn -0.782145 0.622941 -0.013928
vn -0.782145 0.622941 -0.013928
vn -0.782145 0.622941 -0.013928
vn -0.647160 0.660721 -0.380305
vn -0.647160 0.660721 -0.380305
vn -0.647160 0.660721 -0.380305
vn -0.647160 0.660721 -0.380305
s off
g _Group12915
usemtl _defaultMat
f 1/1/1 51/2/2 75/3/3 54/4/4
f 51/2/5 15/5/6 52/6/7 75/3/8
f 75/3/9 52/6/10 21/7/11 53/8/12
f 54/4/13 75/3/14 53/8/15 18/9/16
f 15/10/17 55/11/18 76/12/19 52/13/20
f 55/11/21 2/14/22 56/15/23 76/12/24
f 76/12/25 56/15/26 16/16/27 57/17/28
f 52/13/29 76/12/30 57/17/31 21/18/32
f 21/18/33 57/17/34 77/19/35 60/20/36
f 57/17/37 16/16/38 58/21/39 77/19/40
f 77/19/41 58/21/42 4/22/43 59/23/44
f 60/20/45 77/19/46 59/23/47 17/24/48
f 18/9/49 53/8/50 78/25/51 62/26/52
f 53/8/53 21/7/54 60/27/55 78/25/56
f 78/25/57 60/27/58 17/28/59 61/29/60
f 62/26/61 78/25/62 61/29/63 3/30/64
f 3/30/65 61/29/66 79/31/67 65/32/68
f 61/29/69 17/28/70 63/33/71 79/31/72
f 79/31/73 63/33/74 22/34/75 64/35/76
f 65/32/77 79/31/78 64/35/79 9/36/80
f 17/24/81 59/23/82 80/37/83 63/38/84
f 59/23/85 4/22/86 66/39/87 80/37/88
f 80/37/89 66/39/90 19/40/91 67/41/92
f 63/38/93 80/37/94 67/41/95 22/42/96
f 22/42/97 67/41/98 81/43/99 70/44/100
f 67/41/101 19/40/102 68/45/103 81/43/104
f 81/43/105 68/45/106 6/46/107 69/47/108
f 70/44/109 81/43/110 69/47/111 20/48/112
f 9/36/113 64/35/114 82/49/115 72/50/116
f 64/35/117 22/34/118 70/51/119 82/49/120
f 82/49/121 70/51/122 20/52/123 71/53/124
f 72/50/125 82/49/126 71/53/127 5/54/128
f 5/54/129 71/53/130 83/55/131 27/56/132
f 71/53/133 20/52/134 73/57/135 83/55/136
f 83/55/137 73/57/138 23/58/139 74/59/140
f 27/56/141 83/55/142 74/59/143 12/60/144
f 20/48/145 69/47/146 84/61/147 73/62/148
f 69/47/149 6/46/150 28/63/151 84/61/152
f 84/61/153 28/63/154 10/64/155 29/65/156
f 73/62/157 84/61/158 29/65/159 23/66/160
f 23/66/161 29/65/162 85/67/163 32/68/164
f 29/65/165 10/64/166 30/69/167 85/67/168
f 85/67/169 30/69/170 8/70/171 31/71/172
f 32/68/173 85/67/174 31/71/175 11/72/176
f 12/60/177 74/59/178 86/73/179 34/74/180
f 74/59/181 23/58/182 32/75/183 86/73/184
f 86/73/185 32/75/186 11/76/187 33/77/188
f 34/74/189 86/73/190 33/77/191 7/78/192
f 7/78/193 33/77/194 87/79/195 37/80/196
f 33/77/197 11/76/198 35/81/199 87/79/200
f 87/79/201 35/81/202 24/82/203 36/83/204
f 37/80/205 87/79/206 36/83/207 14/84/208
f 11/72/209 31/71/210 88/85/211 35/86/212
f 31/71/213 8/70/214 38/87/215 88/85/216
f 88/85/217 38/87/218 13/88/219 39/89/220
f 35/86/221 88/85/222 39/89/223 24/90/224
f 24/90/225 39/89/226 89/91/227 41/92/228
f 39/89/229 13/88/230 40/93/231 89/91/232
f 89/91/233 40/93/234 2/14/235 55/11/236
f 41/92/237 89/91/238 55/11/239 15/10/240
f 14/84/241 36/83/242 90/94/243 42/95/244
f 36/83/245 24/82/246 41/96/247 90/94/248
f 90/94/249 41/96/250 15/5/251 51/2/252
f 42/95/253 90/94/254 51/2/255 1/1/256
f 2/14/257 40/93/258 91/97/259 56/15/260
f 40/93/261 13/88/262 43/98/263 91/97/264
f 91/97/265 43/98/266 25/99/267 44/100/268
f 56/15/269 91/97/270 44/100/271 16/16/272
f 13/88/273 38/87/274 92/101/275 43/98/276
f 38/87/277 8/70/278 30/69/279 92/101/280
f 92/101/281 30/69/282 10/64/283 45/102/284
f 43/98/285 92/101/286 45/102/287 25/99/288
f 25/99/289 45/102/290 93/103/291 46/104/292
f 45/102/293 10/64/294 28/63/295 93/103/296
f 93/103/297 28/63/298 6/46/299 68/45/300
f 46/104/301 93/103/302 68/45/303 19/40/304
f 16/16/305 44/100/306 94/105/307 58/21/308
f 44/100/309 25/99/310 46/104/311 94/105/312
f 94/105/313 46/104/314 19/40/315 66/39/316
f 58/21/317 94/105/318 66/39/319 4/22/320
f 7/78/321 37/80/322 95/106/323 34/74/324
f 37/80/325 14/84/326 47/107/327 95/106/328
f 95/106/329 47/107/330 26/108/331 48/109/332
f 34/74/333 95/106/334 48/109/335 12/60/336
f 14/84/337 42/95/338 96/110/339 47/107/340
f 42/95/341 1/1/342 54/4/343 96/110/344
f 96/110/345 54/4/346 18/9/347 49/111/348
f 47/107/349 96/110/350 49/111/351 26/108/352
f 26/108/353 49/111/354 97/112/355 50/113/356
f 49/111/357 18/9/358 62/26/359 97/112/360
f 97/112/361 62/26/362 3/30/363 65/32/364
f 50/113/365 97/112/366 65/32/367 9/36/368
f 12/60/369 48/109/370 98/114/371 27/56/372
f 48/109/373 26/108/374 50/113/375 98/114/376
f 98/114/377 50/113/378 9/36/379 72/50/380
f 27/56/381 98/114/382 72/50/383 5/54/384
